<?xml version="1.0" encoding="UTF-8" standalone="no"?>
<!-- Created with Inkscape (http://www.inkscape.org/) -->

<svg
   width="6.3441539mm"
   height="6.3441539mm"
   viewBox="0 0 6.3441538 6.3441538"
   version="1.1"
   id="svg5"
   inkscape:version="1.2.2 (1:1.2.2+202212051550+b0a8486541)"
   sodipodi:docname="favicon.svg"
   xmlns:inkscape="http://www.inkscape.org/namespaces/inkscape"
   xmlns:sodipodi="http://sodipodi.sourceforge.net/DTD/sodipodi-0.dtd"
   xmlns="http://www.w3.org/2000/svg"
   xmlns:svg="http://www.w3.org/2000/svg">
  <sodipodi:namedview
     id="namedview7"
     pagecolor="#ffffff"
     bordercolor="#000000"
     borderopacity="0.25"
     inkscape:showpageshadow="2"
     inkscape:pageopacity="0.0"
     inkscape:pagecheckerboard="0"
     inkscape:deskcolor="#666666"
     inkscape:document-units="mm"
     showgrid="false"
     inkscape:zoom="26.910887"
     inkscape:cx="17.446471"
     inkscape:cy="11.593821"
     inkscape:window-width="1366"
     inkscape:window-height="712"
     inkscape:window-x="0"
     inkscape:window-y="0"
     inkscape:window-maximized="1"
     inkscape:current-layer="layer1" />
  <defs
     id="defs2" />
  <g
     inkscape:label="Layer 1"
     inkscape:groupmode="layer"
     id="layer1"
     transform="translate(-118.89996,-107.5737)">
    <circle
       style="fill:#0ea5e9;stroke:none;stroke-width:15.4109;stroke-linecap:round;stroke-linejoin:round;paint-order:markers stroke fill"
       id="path512"
       cx="122.07204"
       cy="110.74577"
       r="3.1720769" />
    <path
       id="rect4985"
       style="color:#000000;fill:#ffffff;fill-opacity:1;stroke-width:0.0447933;stroke-linecap:round;stroke-linejoin:round;-inkscape-stroke:none;paint-order:markers stroke fill"
       d="m 120.97317,108.82805 a 0.1524015,0.1524015 0 0 0 -0.14026,0.0711 l -0.88669,1.4158 a 0.1524015,0.1524015 0 0 0 0.0449,0.20786 l 0.50971,0.33821 a 0.15238626,0.15238626 0 0 0 0.21126,-0.0427 0.15238626,0.15238626 0 0 0 -0.0428,-0.21119 l -0.38607,-0.25625 0.65528,-1.04617 0.99418,2.25892 a 0.15238626,0.15238626 0 0 0 0.003,0.005 0.15238626,0.15238626 0 0 0 0.008,0.0146 0.15238626,0.15238626 0 0 0 0.01,0.0143 0.15238626,0.15238626 0 0 0 0.0115,0.0123 0.15238626,0.15238626 0 0 0 0.0126,0.0118 0.15238626,0.15238626 0 0 0 0.0141,0.01 0.15238626,0.15238626 0 0 0 0.0147,0.009 0.15238626,0.15238626 0 0 0 0.004,0.003 0.15238626,0.15238626 0 0 0 0.0113,0.004 0.15238626,0.15238626 0 0 0 0.0164,0.005 0.15238626,0.15238626 0 0 0 0.0166,0.003 0.15238626,0.15238626 0 0 0 0.0171,0.001 0.15238626,0.15238626 0 0 0 0.0171,-0.001 0.15238626,0.15238626 0 0 0 0.0166,-0.003 0.15238626,0.15238626 0 0 0 0.0164,-0.005 0.15238626,0.15238626 0 0 0 0.0113,-0.004 0.15238626,0.15238626 0 0 0 0.009,-0.004 0.15238626,0.15238626 0 0 0 3.7e-4,-2.8e-4 0.15238626,0.15238626 0 0 0 0.0276,-0.0186 0.15238626,0.15238626 0 0 0 7.4e-4,-3.8e-4 0.15238626,0.15238626 0 0 0 0.0227,-0.0243 0.15238626,0.15238626 0 0 0 3.7e-4,-7.4e-4 0.15238626,0.15238626 0 0 0 0.0169,-0.029 0.15238626,0.15238626 0 0 0 1.5e-4,-2.6e-4 l 3.7e-4,-7.4e-4 1.5e-4,-3e-4 a 0.15238626,0.15238626 0 0 0 7e-5,-2.5e-4 l 0.99368,-2.25771 0.65528,1.04617 -0.38607,0.25625 a 0.15238626,0.15238626 0 0 0 -0.0427,0.21119 0.15238626,0.15238626 0 0 0 0.2112,0.0427 l 0.50978,-0.33821 a 0.1524015,0.1524015 0 0 0 0.0449,-0.20786 l -0.88676,-1.4158 a 0.1524015,0.1524015 0 0 0 -0.14016,-0.0711 0.1524015,0.1524015 0 0 0 -0.12842,0.0906 l -0.97067,2.20531 -0.97057,-2.20531 a 0.1524015,0.1524015 0 0 0 -0.12842,-0.0906 z m -0.0111,1.29033 a 0.15238626,0.15238626 0 0 0 -0.15233,0.15241 v 1.4884 c 0,0.49859 0.40611,0.9047 0.90469,0.9047 h 0.71546 c 0.49859,0 0.90479,-0.40611 0.90479,-0.9047 v -1.4884 a 0.15238626,0.15238626 0 0 0 -0.1524,-0.15241 0.15238626,0.15238626 0 0 0 -0.1524,0.15241 v 1.4884 c 0,0.33502 -0.26497,0.59999 -0.59999,0.59999 h -0.71546 c -0.33501,0 -0.59998,-0.26498 -0.59998,-0.59999 v -1.4884 a 0.15238626,0.15238626 0 0 0 -0.15238,-0.15241 z" />
  </g>
</svg>
