<?xml version="1.0" encoding="UTF-8" standalone="no"?>
<!-- Created with Inkscape (http://www.inkscape.org/) -->

<svg
   width="51.28072mm"
   height="10.344585mm"
   viewBox="0 0 51.280718 10.344585"
   version="1.1"
   id="svg5"
   inkscape:version="1.2.2 (1:1.2.2+202212051550+b0a8486541)"
   sodipodi:docname="logo.svg"
   xmlns:inkscape="http://www.inkscape.org/namespaces/inkscape"
   xmlns:sodipodi="http://sodipodi.sourceforge.net/DTD/sodipodi-0.dtd"
   xmlns="http://www.w3.org/2000/svg"
   xmlns:svg="http://www.w3.org/2000/svg">
  <sodipodi:namedview
     id="namedview7"
     pagecolor="#ffffff"
     bordercolor="#000000"
     borderopacity="0.25"
     inkscape:showpageshadow="2"
     inkscape:pageopacity="0.0"
     inkscape:pagecheckerboard="0"
     inkscape:deskcolor="#666666"
     inkscape:document-units="mm"
     showgrid="false"
     inkscape:zoom="2.3786088"
     inkscape:cx="116.03421"
     inkscape:cy="48.347589"
     inkscape:window-width="1366"
     inkscape:window-height="712"
     inkscape:window-x="0"
     inkscape:window-y="0"
     inkscape:window-maximized="1"
     inkscape:current-layer="layer1" />
  <defs
     id="defs2" />
  <g
     inkscape:label="Layer 1"
     inkscape:groupmode="layer"
     id="layer1"
     transform="translate(112.52053,-78.426166)">
    <path
       id="rect4985"
       style="color:#000000;fill:#0ea5e9;fill-opacity:1;stroke-width:0.120785;stroke-linecap:round;stroke-linejoin:round;-inkscape-stroke:none;paint-order:markers stroke fill"
       d="m -109.68872,78.427306 a 0.41095039,0.41095039 0 0 0 -0.37819,0.191808 l -2.39096,3.817685 a 0.41095039,0.41095039 0 0 0 0.12104,0.560507 l 1.37442,0.911977 a 0.41090929,0.41090929 0 0 0 0.56968,-0.115096 0.41090929,0.41090929 0 0 0 -0.11535,-0.569495 l -1.04106,-0.690958 1.76697,-2.821008 2.68081,6.09117 a 0.41090929,0.41090929 0 0 0 0.007,0.01223 0.41090929,0.41090929 0 0 0 0.0228,0.03927 0.41090929,0.41090929 0 0 0 0.026,0.03839 0.41090929,0.41090929 0 0 0 0.0309,0.03307 0.41090929,0.41090929 0 0 0 0.0339,0.03165 0.41090929,0.41090929 0 0 0 0.0379,0.02572 0.41090929,0.41090929 0 0 0 0.0397,0.02304 0.41090929,0.41090929 0 0 0 0.0121,0.007 0.41090929,0.41090929 0 0 0 0.0304,0.0095 0.41090929,0.41090929 0 0 0 0.0442,0.01379 0.41090929,0.41090929 0 0 0 0.0448,0.0067 0.41090929,0.41090929 0 0 0 0.0461,0.0037 0.41090929,0.41090929 0 0 0 0.0461,-0.0037 0.41090929,0.41090929 0 0 0 0.0449,-0.0067 0.41090929,0.41090929 0 0 0 0.0442,-0.01379 0.41090929,0.41090929 0 0 0 0.0304,-0.0095 0.41090929,0.41090929 0 0 0 0.0241,-0.01176 0.41090929,0.41090929 0 0 0 0.001,-7.57e-4 0.41090929,0.41090929 0 0 0 0.0744,-0.05031 0.41090929,0.41090929 0 0 0 0.002,-0.0015 0.41090929,0.41090929 0 0 0 0.0612,-0.06554 0.41090929,0.41090929 0 0 0 0.001,-0.0017 0.41090929,0.41090929 0 0 0 0.0455,-0.07815 0.41090929,0.41090929 0 0 0 4.1e-4,-7.07e-4 l 0.001,-0.0018 4e-4,-8.07e-4 a 0.41090929,0.41090929 0 0 0 1.9e-4,-6.57e-4 l 2.67945,-6.087922 1.76696,2.821008 -1.04105,0.690958 a 0.41090929,0.41090929 0 0 0 -0.11512,0.569493 0.41090929,0.41090929 0 0 0 0.56949,0.115097 l 1.37461,-0.911978 a 0.41095039,0.41095039 0 0 0 0.12103,-0.560505 l -2.39114,-3.817685 a 0.41095039,0.41095039 0 0 0 -0.37794,-0.191809 0.41095039,0.41095039 0 0 0 -0.3463,0.244364 l -2.61739,5.946609 -2.61715,-5.946609 a 0.41095039,0.41095039 0 0 0 -0.34629,-0.244364 z m -0.0299,3.479384 a 0.41090929,0.41090929 0 0 0 -0.41076,0.410954 v 4.013487 c 0,1.344445 1.09508,2.439513 2.43951,2.439513 h 1.92924 c 1.34444,0 2.43977,-1.095082 2.43977,-2.439513 v -4.013487 a 0.41090929,0.41090929 0 0 0 -0.41095,-0.410954 0.41090929,0.41090929 0 0 0 -0.41096,0.410954 v 4.013487 c 0,0.903367 -0.71449,1.617852 -1.61786,1.617852 h -1.92924 c -0.90337,0 -1.61786,-0.7145 -1.61786,-1.617852 v -4.013487 a 0.41090929,0.41090929 0 0 0 -0.41089,-0.410954 z"
       inkscape:export-filename="logo.png"
       inkscape:export-xdpi="96"
       inkscape:export-ydpi="96" />
    <text
       xml:space="preserve"
       style="font-style:normal;font-variant:normal;font-weight:normal;font-stretch:normal;font-size:11.2776px;font-family:Gayathri;-inkscape-font-specification:'Gayathri, Normal';font-variant-ligatures:normal;font-variant-caps:normal;font-variant-numeric:normal;font-variant-east-asian:normal;text-align:center;text-anchor:middle;fill:#0ea5e9;fill-opacity:1;stroke:none;stroke-width:28.7;stroke-linecap:round;stroke-linejoin:round;stroke-dasharray:none;paint-order:markers stroke fill"
       x="-80.224106"
       y="86.031174"
       id="text5776"><tspan
         sodipodi:role="line"
         id="tspan5774"
         style="font-style:normal;font-variant:normal;font-weight:normal;font-stretch:normal;font-size:11.2776px;font-family:Gayathri;-inkscape-font-specification:'Gayathri, Normal';font-variant-ligatures:normal;font-variant-caps:normal;font-variant-numeric:normal;font-variant-east-asian:normal;fill:#0ea5e9;fill-opacity:1;stroke:none;stroke-width:28.7"
         x="-80.224106"
         y="86.031174">MOUFIT</tspan></text>
    <text
       xml:space="preserve"
       style="font-style:normal;font-variant:normal;font-weight:normal;font-stretch:normal;font-size:2.51987px;line-height:0;font-family:sans-serif;-inkscape-font-specification:'sans-serif, Normal';font-variant-ligatures:normal;font-variant-caps:normal;font-variant-numeric:normal;font-variant-east-asian:normal;text-align:center;letter-spacing:1.41403px;text-anchor:middle;fill:#0ea5e9;fill-opacity:1;stroke:none;stroke-width:6.41274;stroke-linecap:round;stroke-linejoin:round;stroke-dasharray:none;paint-order:markers stroke fill"
       x="-99.042618"
       y="88.735069"
       id="text7257"><tspan
         sodipodi:role="line"
         id="tspan7255"
         style="font-style:normal;font-variant:normal;font-weight:normal;font-stretch:normal;font-size:2.51987px;font-family:sans-serif;-inkscape-font-specification:'sans-serif, Normal';font-variant-ligatures:normal;font-variant-caps:normal;font-variant-numeric:normal;font-variant-east-asian:normal;text-align:start;text-anchor:start;fill:#0ea5e9;fill-opacity:1;stroke:none;stroke-width:6.41274"
         x="-99.042618"
         y="88.735069">MOSLEM OUTFIT</tspan></text>
  </g>
</svg>
